<svg width="50" height="50" viewBox="0 0 50 50" fill="none" xmlns="http://www.w3.org/2000/svg">
<mask id="mask0_2721_5677" style="mask-type:luminance" maskUnits="userSpaceOnUse" x="0" y="0" width="50" height="50">
<path d="M50 0H0V50H50V0Z" fill="white"/>
</mask>
<g mask="url(#mask0_2721_5677)">
<path d="M24.9985 0C11.2151 0 0 11.2151 0 25C0 38.7853 11.2151 50 24.9985 50C38.7857 50 50.0008 38.7853 50.0008 25C50.0008 11.2151 38.7857 0 24.9985 0Z" fill="url(#paint0_linear_2721_5677)"/>
<path d="M24.9979 6.25098C14.6594 6.25098 6.25098 14.6621 6.25098 25.001C6.25098 35.3402 14.6594 43.751 24.9979 43.751C35.3402 43.751 43.7487 35.3402 43.7487 25.001C43.7487 14.6621 35.3402 6.25098 24.9979 6.25098Z" fill="url(#paint1_linear_2721_5677)"/>
<mask id="mask1_2721_5677" style="mask-type:alpha" maskUnits="userSpaceOnUse" x="15" y="9" width="19" height="32">
<mask id="mask2_2721_5677" style="mask-type:luminance" maskUnits="userSpaceOnUse" x="15" y="9" width="19" height="32">
<path d="M33.6963 9.37402H15.6265V40.6241H33.6963V9.37402Z" fill="white"/>
</mask>
<g mask="url(#mask2_2721_5677)">
<path d="M18.4439 30.4754C18.9821 31.2705 19.582 32.1198 20.1433 32.9926C21.685 35.3952 21.5543 37.4763 19.7511 39.6866C19.5512 39.9308 19.359 40.1803 19.1667 40.4271C24.361 38.6086 28.9209 36.123 30.9278 30.59C29.0054 29.7769 27.2176 28.9691 25.3875 28.2728C24.8569 28.0909 24.2802 28.0909 23.7496 28.2728C22.0003 28.9352 20.2893 29.7015 18.4439 30.4754ZM30.0742 24.6987L30.0473 24.4727C26.1219 24.4727 22.1963 24.4727 18.2709 24.4727C17.9633 24.4838 17.6596 24.5372 17.3674 24.6311C16.1256 24.9844 15.4797 26.0025 15.6527 27.3039C15.8142 28.5016 16.7561 29.2859 18.0556 29.2263C18.6093 29.2174 19.1591 29.1182 19.682 28.9325C23.1499 27.5481 26.6139 26.117 30.0742 24.6987ZM26.1795 27.1221L26.1026 27.4027C27.6482 28.034 29.1707 28.738 30.747 29.2705C31.1584 29.4274 31.6083 29.4474 32.0273 29.3274C32.4503 29.2074 32.8194 28.9541 33.0846 28.6054C33.4038 28.2082 33.6037 27.7322 33.6729 27.2293C33.7383 26.7261 33.6652 26.2139 33.4653 25.7479C33.1577 24.9686 32.5849 24.6907 31.7621 25.0078C29.9012 25.7118 28.0481 26.4131 26.1872 27.1221H26.1795Z" fill="#F2F2F2"/>
<path d="M26.1757 9.37505C25.3414 10.6738 25.6028 11.5231 26.7293 12.6273C27.8558 13.7311 29.0092 14.7054 29.9858 15.895C30.6202 16.6743 31.22 17.6562 31.3622 18.6197C31.7467 21.2172 30.0242 23.0046 27.1253 23.1734C28.3479 21.6563 27.5675 20.5759 26.4794 19.5055C25.9066 18.9523 25.4029 18.3314 24.8801 17.7523C22.4886 18.9861 21.2429 21.3887 22.0888 23.0746C20.8892 23.2799 19.5628 22.7186 18.7131 21.5655C17.798 20.3291 17.5481 18.9211 18.2747 17.5678C18.8745 16.4997 19.6051 15.5105 20.4471 14.622C21.6428 13.2555 22.9345 11.9722 24.3071 10.7803C24.8992 10.2866 26.1103 9.33852 26.1757 9.37505Z" fill="#F2F2F2"/>
</g>
</mask>
<g mask="url(#mask1_2721_5677)">
<path d="M34.378 8.75049H15.0029V41.2506H34.378V8.75049Z" fill="url(#paint2_linear_2721_5677)"/>
</g>
</g>
<defs>
<linearGradient id="paint0_linear_2721_5677" x1="7.33191" y1="42.6696" x2="42.6689" y2="7.33035" gradientUnits="userSpaceOnUse">
<stop stop-color="#FF8125"/>
<stop offset="1" stop-color="#FFC025"/>
</linearGradient>
<linearGradient id="paint1_linear_2721_5677" x1="11.7489" y1="38.2534" x2="38.2545" y2="11.7493" gradientUnits="userSpaceOnUse">
<stop stop-color="#FFC025"/>
<stop offset="1" stop-color="#FFFF7F"/>
</linearGradient>
<linearGradient id="paint2_linear_2721_5677" x1="34.3766" y1="8.75049" x2="15.003" y2="41.2504" gradientUnits="userSpaceOnUse">
<stop stop-color="#FFC025"/>
<stop offset="1" stop-color="#FF8125"/>
</linearGradient>
</defs>
</svg>
